<svg xmlns="http://www.w3.org/2000/svg" width="600" height="600" viewBox="0 0 600 600">
  <defs>
    <linearGradient id="pawpaw-a" x1=".258%" x2="101.258%" y1="49.75%" y2="49.75%">
      <stop offset="0%" stop-color="#3023AE"/>
      <stop offset="47.525%" stop-color="#53A0FD"/>
      <stop offset="100%" stop-color="#B4EC51"/>
    </linearGradient>
  </defs>
  <g fill="none" fill-rule="evenodd" transform="translate(20 45)">
    <path fill="url(#pawpaw-a)" d="M307.817427 281.15C373.112033 295.140909 389.435685 381.418182 349.792531 425.722727 373.112033 444.377273 396.431535 453.704545 415.087137 453.704545 426.746888 453.704545 438.406639 449.040909 447.73444 442.045455 454.73029 435.05 461.726141 423.390909 466.390041 411.731818 473.385892 383.75 471.053942 344.109091 447.73444 297.472727 440.738589 281.15 438.406639 269.490909 436.074689 257.831818 433.742739 241.509091 436.074689 227.518182 443.070539 218.190909 450.06639 208.863636 457.062241 199.536364 468.721992 194.872727 475.717842 192.540909 485.045643 190.209091 492.041494 187.877273 517.692946 185.545455 541.012448 199.536364 552.672199 215.859091 557.3361 222.854545 559.66805 229.85 559.66805 236.845455 562 243.840909 559.66805 253.168182 557.3361 260.163636 550.340249 274.154545 531.684647 288.145455 499.037344 290.477273 494.373444 290.477273 487.377593 285.813636 487.377593 281.15 487.377593 274.154545 492.041494 269.490909 496.705394 267.159091 520.024896 264.827273 531.684647 257.831818 536.348548 250.836364 536.348548 246.172727 538.680498 243.840909 536.348548 239.177273 536.348548 236.845455 534.016598 232.181818 531.684647 229.85 524.688797 218.190909 510.697095 208.863636 496.705394 211.195455 489.709544 213.527273 482.713693 213.527273 478.049793 215.859091 471.053942 218.190909 466.390041 222.854545 464.058091 229.85 459.394191 236.845455 457.062241 243.840909 459.394191 253.168182L459.394191 255.5C459.394191 262.495455 464.058091 274.154545 468.721992 288.145455 494.373444 339.445455 499.037344 386.081818 487.377593 418.727273 482.713693 435.05 473.385892 449.040909 461.726141 460.7 450.06639 470.027273 433.742739 477.022727 417.419087 477.022727 389.435685 477.022727 361.452282 465.363636 331.136929 439.713636 326.473029 442.045455 321.809129 444.377273 317.145228 446.709091 314.813278 444.377273 310.149378 442.045455 307.817427 439.713636L307.817427 281.15zM265.842324 103.931818C270.506224 103.931818 272.838174 113.259091 272.838174 122.586364 272.838174 131.913636 270.506224 138.909091 265.842324 138.909091 263.510373 138.909091 261.178423 131.913636 261.178423 122.586364 261.178423 113.259091 263.510373 103.931818 265.842324 103.931818z"/>
    <path fill="url(#pawpaw-a)" d="M130.589212,17.6545455 C149.244813,26.9818182 160.904564,31.6454545 165.568465,36.3090909 C198.215768,26.9818182 233.195021,26.9818182 268.174274,36.3090909 C272.838174,31.6454545 284.497925,26.9818182 303.153527,17.6545455 C354.456432,-7.99545455 352.124481,-10.3272727 347.460581,47.9681818 C347.460581,71.2863636 347.460581,82.9454545 342.79668,89.9409091 C345.128631,94.6045455 347.460581,99.2681818 349.792531,103.931818 C352.124481,101.6 356.788382,101.6 361.452282,101.6 C375.443983,99.2681818 389.435685,101.6 401.095436,103.931818 C412.755187,108.595455 422.082988,113.259091 429.078838,122.586364 C433.742739,124.918182 426.746888,129.581818 424.414938,127.25 C417.419087,120.254545 408.091286,115.590909 398.763485,110.927273 C387.103734,108.595455 375.443983,106.263636 361.452282,108.595455 C359.120332,108.595455 354.456432,110.927273 349.792531,110.927273 C352.124481,115.590909 352.124481,120.254545 349.792531,122.586364 C359.120332,124.918182 368.448133,127.25 375.443983,129.581818 C391.767635,134.245455 403.427386,141.240909 415.087137,148.236364 C424.414938,155.231818 431.410788,162.227273 433.742739,171.554545 C433.742739,176.218182 426.746888,178.55 424.414938,173.886364 C424.414938,166.890909 417.419087,159.895455 410.423237,152.9 C401.095436,145.904545 389.435685,141.240909 375.443983,136.577273 C366.116183,134.245455 359.120332,131.913636 349.792531,131.913636 C349.792531,134.245455 347.460581,138.909091 347.460581,141.240909 C349.792531,143.572727 354.456432,143.572727 359.120332,145.904545 C370.780083,152.9 382.439834,159.895455 389.435685,169.222727 C398.763485,178.55 403.427386,190.209091 405.759336,199.536364 C405.759336,204.2 398.763485,206.531818 396.431535,201.868182 C396.431535,192.540909 391.767635,183.213636 384.771784,173.886364 C377.775934,166.890909 366.116183,159.895455 356.788382,152.9 C352.124481,150.568182 347.460581,150.568182 342.79668,148.236364 C331.136929,171.554545 303.153527,190.209091 270.506224,201.868182 C286.829876,213.527273 298.489627,229.85 298.489627,250.836364 C298.489627,316.127273 298.489627,383.75 298.489627,449.040909 C319.477178,449.040909 324.141079,474.690909 307.817427,484.018182 C307.817427,498.009091 303.153527,498.009091 300.821577,486.35 C298.489627,486.35 296.157676,486.35 291.493776,486.35 C286.829876,493.345455 282.165975,498.009091 275.170124,498.009091 C272.838174,514.331818 268.174274,514.331818 268.174274,500.340909 C261.178423,498.009091 254.182573,493.345455 249.518672,486.35 C247.186722,486.35 244.854772,486.35 242.522822,486.35 C240.190871,498.009091 235.526971,498.009091 235.526971,484.018182 C216.871369,474.690909 223.86722,449.040909 244.854772,449.040909 L244.854772,267.159091 C244.854772,262.495455 235.526971,262.495455 235.526971,267.159091 C235.526971,325.454545 235.526971,383.75 235.526971,442.045455 C226.19917,444.377273 219.20332,451.372727 216.871369,460.7 C214.539419,451.372727 207.543568,444.377273 198.215768,442.045455 C198.215768,383.75 198.215768,325.454545 198.215768,267.159091 C198.215768,262.495455 188.887967,262.495455 188.887967,267.159091 L188.887967,449.040909 C209.875519,449.040909 216.871369,474.690909 198.215768,484.018182 C198.215768,498.009091 193.551867,498.009091 191.219917,486.35 C188.887967,486.35 186.556017,486.35 184.224066,486.35 C179.560166,493.345455 172.564315,498.009091 165.568465,500.340909 C163.236515,514.331818 158.572614,514.331818 158.572614,498.009091 C151.576763,498.009091 144.580913,493.345455 139.917012,486.35 C137.585062,486.35 135.253112,486.35 132.921162,486.35 C130.589212,498.009091 125.925311,498.009091 125.925311,484.018182 C107.26971,474.690909 114.26556,449.040909 135.253112,449.040909 C135.253112,383.75 135.253112,316.127273 135.253112,250.836364 C135.253112,229.85 146.912863,213.527273 163.236515,201.868182 C130.589212,190.209091 102.605809,171.554545 88.6141079,148.236364 C86.2821577,150.568182 81.6182573,150.568182 76.9543568,152.9 C65.2946058,159.895455 55.966805,166.890909 48.9709544,173.886364 C41.9751037,183.213636 37.3112033,192.540909 34.9792531,201.868182 C34.9792531,206.531818 27.9834025,204.2 27.9834025,199.536364 C30.3153527,190.209091 34.9792531,178.55 41.9751037,169.222727 C51.3029046,159.895455 60.6307054,152.9 74.6224066,145.904545 C76.9543568,143.572727 81.6182573,143.572727 86.2821577,141.240909 C83.9502075,138.909091 83.9502075,134.245455 83.9502075,131.913636 C74.6224066,131.913636 67.626556,134.245455 58.2987552,136.577273 C44.3070539,141.240909 32.6473029,145.904545 23.3195021,152.9 C13.9917012,159.895455 9.32780083,166.890909 6.99585062,173.886364 C6.99585062,178.55 0,176.218182 0,171.554545 C2.33195021,162.227273 9.32780083,155.231818 18.6556017,148.236364 C27.9834025,141.240909 41.9751037,134.245455 55.966805,129.581818 C65.2946058,127.25 74.6224066,124.918182 81.6182573,122.586364 C81.6182573,120.254545 81.6182573,115.590909 81.6182573,110.927273 C79.2863071,110.927273 74.6224066,108.595455 69.9585062,108.595455 C58.2987552,106.263636 46.6390041,108.595455 34.9792531,110.927273 C23.3195021,115.590909 16.3236515,120.254545 9.32780083,127.25 C6.99585062,129.581818 0,124.918182 2.33195021,122.586364 C9.32780083,113.259091 20.9875519,108.595455 32.6473029,103.931818 C44.3070539,101.6 58.2987552,99.2681818 72.2904564,101.6 C76.9543568,101.6 79.2863071,101.6 83.9502075,103.931818 C83.9502075,99.2681818 86.2821577,94.6045455 88.6141079,89.9409091 C86.2821577,82.9454545 86.2821577,71.2863636 83.9502075,47.9681818 C81.6182573,-10.3272727 79.2863071,-7.99545455 130.589212,17.6545455 Z M216.871369,152.9 C207.543568,152.9 209.875519,155.231818 214.539419,164.559091 C214.539419,164.559091 216.871369,164.559091 216.871369,164.559091 C216.871369,164.559091 216.871369,164.559091 216.871369,164.559091 C223.86722,155.231818 226.19917,152.9 216.871369,152.9 Z M268.174274,87.6090909 C289.161826,87.6090909 305.485477,99.2681818 305.485477,113.259091 C305.485477,129.581818 289.161826,141.240909 268.174274,141.240909 C249.518672,141.240909 233.195021,129.581818 233.195021,113.259091 C233.195021,99.2681818 249.518672,87.6090909 268.174274,87.6090909 Z M163.236515,87.6090909 C144.580913,87.6090909 128.257261,99.2681818 128.257261,113.259091 C128.257261,129.581818 144.580913,141.240909 163.236515,141.240909 C184.224066,141.240909 200.547718,129.581818 200.547718,113.259091 C200.547718,99.2681818 184.224066,87.6090909 163.236515,87.6090909 Z"/>
    <path fill="url(#pawpaw-a)" d="M125.925311 281.15C46.6390041 297.472727 39.6431535 418.727273 116.59751 446.709091 118.929461 444.377273 121.261411 442.045455 125.925311 439.713636L125.925311 281.15zM165.568465 103.931818C163.236515 103.931818 158.572614 113.259091 158.572614 122.586364 158.572614 131.913636 163.236515 138.909091 165.568465 138.909091 170.232365 138.909091 172.564315 131.913636 172.564315 122.586364 172.564315 113.259091 170.232365 103.931818 165.568465 103.931818z"/>
    <path d="M335.80083,430.386364 C433.742739,516.663636 527.020747,435.05 459.394191,292.809091 C429.078838,229.85 459.394191,204.2 494.373444,199.536364 C545.676349,194.872727 585.319502,271.822727 499.037344,278.818182"/>
  </g>
</svg>
