<svg version="1" xmlns="http://www.w3.org/2000/svg" width="933.333" height="933.333" viewBox="0 0 700.000000 700.000000"><path d="M125.3 54.2c-3.8 1.8-4.7 7-4.7 24.3 0 14.9.8 34 1.9 44.5.2 2.5.9 9.7 1.5 16 .6 6.3 1.5 13.1 1.9 15 .5 2.7.2 4.7-1.6 8.5-1.9 4.3-2.9 7.5-3.2 10.7-.1.4-1.8 0-3.8-.8-4.1-1.7-31.6-2.5-40.8-1.2-19.4 2.8-36.2 10.1-46.5 20.2-5.5 5.3-5.2 8.4.8 9.9 1.7.4 3.3-.3 6-2.7 10.2-9.2 24.8-16.8 34.7-18.2 2.8-.3 7.3-1 10-1.4 5.2-.8 22.1-.5 26.5.5 1.4.3 4.1.9 6 1.2 1.9.3 3.8 1 4.1 1.5.3.4.5 3.6.5 7.1l-.1 6.2-12 3.3c-26.7 7.3-42.8 14.1-57.4 24C42 227.6 29 239.5 29 241.1c0 .4-.6 1.4-1.3 2.1-2.6 2.6-4.8 9.8-3.7 11.8.9 1.7 5.7 3.9 6.3 2.9.1-.2 1.6-3.3 3.3-6.9 5.7-11.7 15.6-20.7 31.9-28.8 13.6-6.8 34.5-13.4 46-14.7 3.3-.4 6.8-.9 7.8-1.1.9-.1 1.7 0 1.8.4.4 4.8 1.1 7.7 2 8.8 1.2 1.4-.2 2.4-6.5 4.4-9.9 3.2-30.5 16.8-40.1 26.4-7.5 7.5-12.1 15.1-16.8 27.6-4 10.3-4.2 13.6-1.1 15.6 3.4 2.3 4.9 1.3 6.3-4.1 2.6-10.1 11.6-26.1 18.5-32.9 9.1-8.7 26.8-20.7 34.9-23.6 2.8-1 5.9-2.1 6.9-2.5 1.2-.5 3 1.2 7.1 6.7 5.4 7.3 14.7 16.9 22.2 22.9 12.6 10 37.5 23.9 51.8 28.9 3.7 1.3 6.7 2.7 6.7 3 0 .4-1.4 1.8-3.2 3.1-9.3 7-19.2 19.4-23.5 29.4-5.3 12.4-5.2 8.8-5.3 136.4 0 65.1-.3 118.7-.6 119.2s-1.6.9-3 .9c-6.3 0-15.2 6.4-18 12.9-2 4.8-2 12.1.1 16.4 1.6 3.4 8.6 10.7 10.3 10.7.4 0 .8 2 .9 4.4.2 5.8 1.9 9.2 3.9 7.5.7-.6 1.9-2.9 2.6-5 1-3.7 1.3-3.9 5-3.9 3.4 0 4.6.7 8.3 4.4 4.8 5 9.4 7.7 14.4 8.5 3.3.6 3.4.7 3.8 6 .4 5.4 1.7 9.1 3.2 9.1 1 0 4.1-7.3 4.1-9.8 0-1.1 2.1-2.7 6-4.5 3.4-1.6 8.3-5.2 11.3-8.3 4.8-4.7 5.9-5.4 9.5-5.4 3.7 0 4 .2 4.6 3.4.4 1.8 1.5 4.1 2.5 5 1.8 1.7 2 1.7 3.1-.4.6-1.1 1.2-3.9 1.2-6 0-3.4.6-4.4 4.5-7.6 10-8.2 11-21.7 2.5-30.8-3.2-3.4-9.6-6.5-13.4-6.6-1.6 0-3.1-.7-3.5-1.8-.5-.9-.8-49.1-.7-107.1.1-101.4.1-105.4 1.9-106.7 2.4-1.8 4.6-1.8 7.1 0 1.9 1.4 1.9 3.7 2.1 102.8 0 55.7.1 102 .2 102.9.1.9 1.7 2.1 4 2.7 5.1 1.6 11.5 7.5 15 14.1l2.9 5.3 1.2-3.7c1.6-5 9.5-12.9 15.3-15.5 2.6-1.1 4.7-2.6 4.7-3.3V464.3c.1-92.4.2-101.4 1.7-102.8 1.8-1.9 7.1-1.4 8.5.8.4.6.8 49.1.8 107.7v106.5l-3.6.3c-10.8.7-19.7 10.5-19.6 21.3 0 7.2 3.5 13.1 10.5 18.2 1.2.8 2 3 2.3 6.2.8 8.6 4.2 9.4 6.6 1.4 1.1-3.7 1.3-3.9 5.4-3.9 3.6 0 4.6.5 6.4 3 2.4 3.4 12.2 11 14.2 11 2.9.1 5.2 3.1 5.5 7.2.4 5.2.9 6.8 2.2 6.8 1.4 0 4-5.7 4.8-10.3.3-2.1 1.1-4 1.7-4.2.6-.2 2.5-.6 4.1-1 1.8-.4 5.3-3 8.8-6.6 5.5-5.6 6-5.9 10.8-5.9 3.9 0 5.1.4 5.5 1.7 1.7 5.4 3.4 8.2 4.8 7.7 1.4-.5 3.9-9.1 3.1-10.5-.3-.3 1.8-2.9 4.5-5.7 5.6-5.8 7.4-10.8 6.6-18.4-1-9.3-8.4-16.6-18.3-18.1-1.2-.2-2.6-.7-3-1.1-.4-.4-.8-54.1-.9-119.4-.1-80.3-.5-120.3-1.2-123.8-2.8-13.3-8.9-23.5-21.4-35.7-4.9-4.9-8.8-9-8.6-9.1.2-.1 3-1.2 6.3-2.5 23-9.1 45.4-22.9 58.6-36 8-8 16.9-19.7 16.9-22 0-1.5 1.3-1.4 9.4 1 7.4 2.2 22.1 11.6 34.8 22.2 9.5 7.9 17.5 21.9 19.2 33.9.8 5.5 2.6 7.3 6.3 6.3 5.7-1.4 6-4.4 1.6-15.5-7.1-17.9-18.7-31.3-38.4-44.2-10.5-6.9-13.2-8.3-22.7-11.9-3.1-1.1-3.3-1.4-2.7-4.7 1.2-6.3 2.2-8 4.7-7.7 1.3.2 4.7.6 7.6.9 15 1.7 42.2 11.8 56.5 21 8.4 5.5 18.2 17.2 19.3 23.2.8 4.3 2.8 6.4 5.9 6.4 6.3 0 6.9-6.5 1.5-15.1-3.4-5.3-13.1-14.7-18.9-18.3-7.6-4.8-19.8-11.2-28.3-15-5.7-2.5-26.2-9-36.6-11.6-8.6-2.1-9.2-2.4-8.6-4.4.6-2 .7-3.4.1-9.5-.1-1.7.4-2.5 1.8-2.7 1.1-.1 5.4-.9 9.5-1.7 8.4-1.7 23.8-1.5 34 .3 3.6.6 7.2 1.2 8 1.3 1.9.3 17.5 8.3 21.5 11 1.7 1.1 5.1 3.8 7.7 5.9 3.9 3.2 5 3.7 7.1 2.9 4.2-1.6 3.8-3.5-1.8-9.2-7.2-7.3-9.6-8.9-19.5-13.7-11.9-5.8-22-7.7-40.5-7.7-16.1 0-23.7.6-26.6 2.1-2.5 1.2-2.6 1.2-6.6-7-3.8-7.7-4-8.3-2.6-10.9 2.2-4.3 3.3-12.9 3.8-29.2.4-16.8 1.5-38 2.1-41 .2-1.1.5-7 .5-13.1.1-13.3-1.2-16.9-6.4-17.9-5.1-1-12.3 1.9-46.5 18.9C361 81 346.7 88 346.3 88c-.3 0-2.7 1.5-5.3 3.4l-4.8 3.5-6.4-1.5c-21.3-5.1-34-6.4-57.8-5.9-20 .3-22.6.5-34 2.5-8.1 1.5-9 1.7-15.4 3.3l-5.9 1.6-4.3-3c-5.6-3.8-67.9-34.5-75.2-37-6.2-2.1-8.7-2.3-11.9-.7zm102.5 102.3c17 4 29.2 15.7 29.2 27.9 0 17.8-16.1 31-39.4 32.4-24.2 1.4-43.3-11.9-44.2-30.9-.7-12.9 10.3-24.7 27.4-29.4 6.4-1.8 19.4-1.8 27 0zm123.2 0c10.3 2 23.2 11.3 26.4 18.9 6.1 14.7-2.5 30.9-20.2 37.9-6.5 2.6-7.5 2.8-18.2 3.4-7.8.4-10.7.2-16.5-1.6-16.5-4.9-26.7-16.4-26.7-30.1 0-12.7 10.7-23.8 27.5-28.5 5.3-1.5 20.5-1.5 27.7 0zm-68.3 76.1c.7 1.9-1.3 5.7-5.1 9.8-2.7 2.9-2.9 3-4.2 1.2-.7-1.1-2.1-3.9-3-6.3-2.1-5.5-1.3-6.3 6.4-6.3 3.9 0 5.4.4 5.9 1.6z"/><path d="M213.6 176.5c-5.5 8.4-6.5 23.1-2.2 31.9 4.3 8.8 9.2 7.8 11.8-2.4 4.3-16.8-3.1-39.5-9.6-29.5zM330.4 179.2c-3.1 10-2.5 27.9 1.2 33.5 1.2 1.9 1.8 2.1 3.8 1.2 3-1.4 4.3-4 5.4-10.7 2.3-12.9-1.5-29.2-6.8-29.2-1.4 0-2.3 1.3-3.6 5.2zM583.9 275.7c-7.7 2.3-15.5 5-17.3 5.8-4.9 2.3-14.9 11.2-20.3 18-2.6 3.3-5.3 6.6-6 7.2-.6.7-2.3 3.7-3.7 6.6-10.3 20.9-5.6 54 13.6 96 18.7 41.2 25.2 82.3 18.5 117.2-2.3 11.6-12.3 30.1-21.5 39.7-4.2 4.4-16.2 10.9-24.7 13.4-5.9 1.7-22 2.4-27.5 1.1-12.2-2.6-21.4-5.9-32.8-11.6-7.2-3.6-22.5-13.4-28.1-17.9l-2.5-2 4.7-6.3c8.2-10.9 16-29.4 18.1-42.4 1.5-9.2 1.8-12.7 1.8-19.5-.2-30.6-10.8-57.8-29.9-76.5-11.3-11.2-27.9-20.7-40.3-23l-3.5-.6v184.4l4.8 3.9c2.7 2.1 5.5 3.8 6.3 3.8.8 0 4.5-1.6 8.3-3.5 3.7-1.9 7.1-3.5 7.5-3.5.4 0 4.4 2.9 8.9 6.4 23.3 18.1 49.3 30.8 70.7 34.6 9 1.7 27.4 2.1 34 .8 16.1-3 33.8-12 42.8-21.9 4-4.5 4.3-4.9 9.9-12.4 7.1-9.5 16.1-28.8 18.8-40.5 5.5-23.5 5.5-48.4.2-75-3.5-17.3-11.2-40.4-19.2-57.5-7.7-16.5-14.9-38.7-16-49.3-1.2-11.6-1.2-13.8 0-18.6 1.5-5.6 8.4-18.8 11.7-22.3 3.5-3.7 12.2-7.1 24.8-9.7 11.2-2.2 12.5-2.3 18.5-1.1 11.7 2.5 20.2 8.6 29 21 5.2 7.2 6.9 13 6 20.1-.5 4.5-1.2 5.8-5 9.3-7.5 6.9-20.5 11.6-37.8 13.7-8 1-15.2 9.3-14.4 16.5.5 4.6 2.5 7.1 7.5 9.5 4.3 2 7.6 2 19.4-.1 19.4-3.4 35.4-11.1 45.9-22.2 9.4-9.9 12.5-19.1 11.5-34.3-.8-12-1.7-15.7-5.6-23.4-8.8-17.1-31.2-32.6-53.1-36.6-12.9-2.4-18.7-2-34 2.7zM159.5 383.5c-20.3 6.8-38.2 21.5-49.3 40.8-5.3 9.2-10.9 25.7-12.8 37.7-1.9 12.5-.8 30.5 3 47.1 2.6 11.6 12.9 29.9 22.5 40.1 8.6 9.2 16.3 14.9 27.5 20.6l8 4 5.8-4.1c5.6-3.9 5.8-4.3 5.9-8.6 0-2.6.1-44.1.2-92.3.2-87.2.2-87.8-1.8-87.7-1.1 0-5.2 1.1-9 2.4z"/></svg>