<svg xmlns="http://www.w3.org/2000/svg" xmlns:xlink="http://www.w3.org/1999/xlink" xml:space="preserve" version="1.1" style="shape-rendering:geometricPrecision;text-rendering:geometricPrecision;image-rendering:optimizeQuality;" viewBox="0 0 241 272.5" x="0px" y="0px" fill-rule="evenodd" clip-rule="evenodd"><defs><style type="text/css">
   
    .fil1 {fill:none}
    .fil0 {fill:black}
   
  </style></defs><g><path class="fil0" d="M132 120c28,6 35,43 18,62 10,8 20,12 28,12 5,0 10,-2 14,-5 3,-3 6,-8 8,-13 3,-12 2,-29 -8,-49 -3,-7 -4,-12 -5,-17l0 0c-1,-7 0,-13 3,-17 3,-4 6,-8 11,-10 3,-1 7,-2 10,-3 11,-1 21,5 26,12l0 0c2,3 3,6 3,9 1,3 0,7 -1,10 -3,6 -11,12 -25,13 -2,0 -5,-2 -5,-4 0,-3 2,-5 4,-6 10,-1 15,-4 17,-7 0,-2 1,-3 0,-5 0,-1 -1,-3 -2,-4l0 0c-3,-5 -9,-9 -15,-8 -3,1 -6,1 -8,2 -3,1 -5,3 -6,6 -2,3 -3,6 -2,10l0 1c0,3 2,8 4,14 11,22 13,42 8,56 -2,7 -6,13 -11,18 -5,4 -12,7 -19,7 -12,0 -24,-5 -37,-16 -2,1 -4,2 -6,3 -1,-1 -3,-2 -4,-3l0 -68z"/><path class="fil0" d="M114 44c2,0 3,4 3,8 0,4 -1,7 -3,7 -1,0 -2,-3 -2,-7 0,-4 1,-8 2,-8z"/><path class="fil0" d="M56 7c8,4 13,6 15,8 14,-4 29,-4 44,0 2,-2 7,-4 15,-8 22,-11 21,-12 19,13 0,10 0,15 -2,18 1,2 2,4 3,6 1,-1 3,-1 5,-1 6,-1 12,0 17,1 5,2 9,4 12,8 2,1 -1,3 -2,2 -3,-3 -7,-5 -11,-7 -5,-1 -10,-2 -16,-1 -1,0 -3,1 -5,1 1,2 1,4 0,5 4,1 8,2 11,3 7,2 12,5 17,8 4,3 7,6 8,10 0,2 -3,3 -4,1 0,-3 -3,-6 -6,-9 -4,-3 -9,-5 -15,-7 -4,-1 -7,-2 -11,-2 0,1 -1,3 -1,4 1,1 3,1 5,2 5,3 10,6 13,10 4,4 6,9 7,13 0,2 -3,3 -4,1 0,-4 -2,-8 -5,-12 -3,-3 -8,-6 -12,-9 -2,-1 -4,-1 -6,-2 -5,10 -17,18 -31,23 7,5 12,12 12,21 0,28 0,57 0,85 9,0 11,11 4,15 0,6 -2,6 -3,1 -1,0 -2,0 -4,0 -2,3 -4,5 -7,5 -1,7 -3,7 -3,1 -3,-1 -6,-3 -8,-6 -1,0 -2,0 -3,0 -1,5 -3,5 -3,-1 -8,-4 -5,-15 4,-15l0 -78c0,-2 -4,-2 -4,0 0,25 0,50 0,75 -4,1 -7,4 -8,8 -1,-4 -4,-7 -8,-8 0,-25 0,-50 0,-75 0,-2 -4,-2 -4,0l0 78c9,0 12,11 4,15 0,6 -2,6 -3,1 -1,0 -2,0 -3,0 -2,3 -5,5 -8,6 -1,6 -3,6 -3,-1 -3,0 -6,-2 -8,-5 -1,0 -2,0 -3,0 -1,5 -3,5 -3,-1 -8,-4 -5,-15 4,-15 0,-28 0,-57 0,-85 0,-9 5,-16 12,-21 -14,-5 -26,-13 -32,-23 -1,1 -3,1 -5,2 -5,3 -9,6 -12,9 -3,4 -5,8 -6,12 0,2 -3,1 -3,-1 1,-4 3,-9 6,-13 4,-4 8,-7 14,-10 1,-1 3,-1 5,-2 -1,-1 -1,-3 -1,-4 -4,0 -7,1 -11,2 -6,2 -11,4 -15,7 -4,3 -6,6 -7,9 0,2 -3,1 -3,-1 1,-4 4,-7 8,-10 4,-3 10,-6 16,-8 4,-1 8,-2 11,-3 0,-1 0,-3 0,-5 -1,0 -3,-1 -5,-1 -5,-1 -10,0 -15,1 -5,2 -8,4 -11,7 -1,1 -4,-1 -3,-2 3,-4 8,-6 13,-8 5,-1 11,-2 17,-1 2,0 3,0 5,1 0,-2 1,-4 2,-6 -1,-3 -1,-8 -2,-18 -1,-25 -2,-24 20,-13zm37 58c-4,0 -3,1 -1,5 0,0 1,0 1,0 0,0 0,0 0,0 3,-4 4,-5 0,-5zm22 -28c9,0 16,5 16,11 0,7 -7,12 -16,12 -8,0 -15,-5 -15,-12 0,-6 7,-11 15,-11zm-45 0c-8,0 -15,5 -15,11 0,7 7,12 15,12 9,0 16,-5 16,-12 0,-6 -7,-11 -16,-11z"/><path class="fil0" d="M54 120c-34,7 -37,59 -4,71 1,-1 2,-2 4,-3l0 -68z"/><path class="fil0" d="M71 44c-1,0 -3,4 -3,8 0,4 2,7 3,7 2,0 3,-3 3,-7 0,-4 -1,-8 -3,-8z"/><path class="fil1" d="M144 184c42,37 82,2 53,-59 -13,-27 0,-38 15,-40 22,-2 39,31 2,34"/></g><text x="0" y="233" fill="#000000" font-size="5px" font-weight="bold" font-family="'Helvetica Neue', Helvetica, Arial-Unicode, Arial, Sans-serif">Created by Chrystina Angeline</text><text x="0" y="238" fill="#000000" font-size="5px" font-weight="bold" font-family="'Helvetica Neue', Helvetica, Arial-Unicode, Arial, Sans-serif">from the Noun Project</text></svg>